<svg
    fill="none"
    height="240"
    viewBox="0 0 240 240"
    width="240"
    xmlns="http://www.w3.org/2000/svg"
    xmlns:xlink="http://www.w3.org/1999/xlink"
    class="offline__illustration"
  >
    <clipPath id="a">
      <path d="m0 0h240v240h-240z"></path>
    </clipPath>
    <g clip-path="url(#a)">
      <path
        d="m127.519 197.742c-3.909 18.755-2.105 22.648-2.405 25.302-.075 1.15-15.637-2.035-15.637-2.035 1.353-3.716 9.172-2.742 9.172-2.742l2.029-21.41v-.265c2.256.53 4.511.884 6.841 1.15z"
        fill="#729599"
      ></path>
      <path
        d="m171.009 153.538c3.786 2.121 8.785 3.03 14.389 3.181 4.62.152 9.618-.227 14.693-.833 4.544-.53 9.088-1.363 13.329-2.121 12.647-2.423 22.947-5.149 23.932-3.786 2.347 3.332-17.419 22.19-28.855 30.445-10.527 7.573-31.051 14.541-51.954 17.419-66.1153-2.121-30.217-102.5442-30.217-102.5442-7.574-.833-13.784-1.5146-13.784-1.5146s-41.2749-4.5441-53.3166-12.0417c-12.0417-7.422-3.1809-41.8052 7.1189-51.8021 10.2241-10.224 77.3247.2272 83.0807 6.3617 2.196 2.3477 3.71 8.255 4.846 16.3585.682 4.9227 1.212 10.6028 1.742 16.6615.379 4.847.758 9.9211 1.061 15.1468-.228.2272-.379.3029-.379.3029s.151.0758.379.303c.378 5.3771.681 10.8299 1.06 16.2072.303 4.923.682 9.769 1.136 14.389.454 5.302 1.06 10.224 1.666 14.768.682 4.393 1.363 8.331 2.272 11.588.682 2.423 1.363 4.468 2.196 6.134 1.364 2.272 3.257 4.09 5.605 5.377z"
        fill="#729599"
      ></path>
      <path
        d="m153.59 198.07c-2.272.303-4.544.455-6.816.606-6.664.455-13.253.455-19.387-.151-2.348-.227-4.62-.53-6.817-.985-8.86-1.666-16.51-4.771-21.8109-9.845-26.8856-25.447 13.8589-94.2132 13.8589-94.2132s6.211.6816 13.784 1.5146c0 0-35.8979 100.4236 30.218 102.5436-1.06.303-2.045.455-3.03.53z"
        fill="#CE8056"
      ></path>
      <g fill="#326BB8">
        <path d="m205.015 146.041c-2.575.227-4.923 9.845-4.923 9.845 4.544-.53 9.088-1.363 13.329-2.121 0-.075-5.832-7.952-8.406-7.724z"></path>
        <path d="m192.822 145.813c-4.998.227-7.27 10.451-7.422 10.906 4.62.151 9.619-.228 14.693-.833 0 0-2.121-10.3-7.271-10.073z"></path>
        <path d="m178.583 144.981c-3.711.227-7.27 8.027-7.497 8.558.151-.531 2.575-8.255 0-10.755-2.5-2.423-7.271-.984-7.65-.833.455-.303 6.135-4.317 4.923-8.255-1.212-4.089-7.27-3.332-7.27-3.332s6.21-3.56 5.15-8.482c-1.136-4.999-6.816-6.286-6.816-6.286.454 5.301 1.06 10.224 1.666 14.768.681 4.393 1.363 8.331 2.272 11.587.681 2.424 1.363 4.469 2.196 6.135 1.212 2.347 3.029 4.165 5.453 5.528 3.787 2.121 8.785 3.03 14.389 3.181-.075-.606-3.105-11.966-6.816-11.814z"></path>
        <path d="m165.329 107.871c-.985-4.696-7.12-6.665-7.12-6.665.303 4.923.682 9.77 1.136 14.39.076 0 7.044-3.029 5.984-7.725z"></path>
        <path d="m164.042 94.7677c-.152-4.6197-5.302-8.6336-6.816-9.6939.378 5.3771.681 10.83 1.06 16.2072 0-.076 5.907-1.136 5.756-6.5133z"></path>
        <path d="m156.091 69.3224c.378 4.847.757 9.9211 1.06 15.1468 1.439-1.2118 6.589-5.6801 6.589-8.1793.076-2.7264-7.271-6.7403-7.649-6.9675z"></path>
        <path d="m161.013 59.7794c-.227-4.4683-6.362-7.0433-6.665-7.1947.682 4.9227 1.212 10.6027 1.742 16.6614.303-.2272 5.15-4.9984 4.923-9.4667z"></path>
      </g>
      <path
        d="m158.551 221.568c.151 1.312-18.041 2.448-18.041 2.448.751-4.546 9.772-5.857 9.772-5.857l-2.405-24.302c2.631-.175 5.187-.524 7.818-.874-.301 21.767 2.556 25.613 2.856 28.585z"
        fill="#729599"
      ></path>
      <path
        d="m100.955 117.034s-2.7263-7.422-12.0416-5.907-8.4822 18.782-6.2102 19.691c1.7419.681 1.7419-5.604 1.7419-5.604s1.2117 6.437 3.408 6.134c.4544-.076.2272-6.968.2272-6.968s2.1963 6.741 3.4081 5.832c1.2117-.909-2.4235-11.587-.9846-13.026 3.1051-3.181 7.9521 5.755 7.9521 5.755"
        fill="#729599"
      ></path>
      <path
        d="m71.1158 59.7795c1.3633-.8331-1.2874-7.0432-3.4837-5.4528-2.1963 1.5146 2.1205 6.2859 3.4837 5.4528z"
        fill="#EA7E7E"
      ></path>
      <path
        d="m127.69 124.153s-4.317-10.148-13.633-8.634c-9.315 1.515-8.482 18.782-6.21 19.691 1.742.682 1.742-5.604 1.742-5.604s1.212 6.437 3.408 6.134c.455-.075.227-6.967.227-6.967s2.197 6.74 3.408 5.831c1.212-.908-2.423-11.587-.984-13.026 3.105-3.181 7.725 4.165 7.725 4.165"
        fill="#729599"
      ></path>
      <path
        d="m70.358 69.3213s-5.983 5.6043-7.9521 5.2256-3.4837-7.3462-3.5595-7.6491c2.9537.6058 6.9675 1.5146 11.5116 2.4235z"
        fill="#F2F2F2"
      ></path>
      <path
        d="m83.3859 71.5942c-.303.303-5.5286 5.1499-7.8006 4.3926-2.1963-.7573-5.0742-6.2859-5.2257-6.6646 4.0139.7573 8.4822 1.5904 13.0263 2.272z"
        fill="#F2F2F2"
      ></path>
      <path
        d="m83.3848 71.5947c4.0139.6059 8.1792 1.0603 12.2689 1.3632v.0758s-1.0603 6.2102-4.5441 5.8315c-3.408-.3787-7.4219-6.8918-7.7248-7.2705z"
        fill="#F2F2F2"
      ></path>
      <path
        d="m109.589 73.1104s-2.651 5.4529-5.529 5.4529c-2.877 0-8.4059-5.5286-8.4059-5.5286v-.0757c4.9229.3787 9.6939.4544 13.9349.1514z"
        fill="#F2F2F2"
      ></path>
      <path
        d="m82.8542 71.517s-.1515 0-.3787-.0757c-.1515 0-.2272 0-.2272 0 .3029 0 .6059.0757.6059.0757.3029 0 .833.0757 1.0602.0757 0 0 .303.0758.6059.0758.0757 0 0 0-.2272 0s-.3787-.0758-.3787-.0758z"
        fill="#ff3f59"
      ></path>
      <path
        d="m53.3952 64.9303s4.4683.8331 11.1329 2.0449c1.6661.3029 3.4837.6058 5.3771.9088 1.8933.3029 3.9382.6816 6.0587.9845 2.1206.3029 4.2411.6816 6.4374.9845 2.1963.303 4.4683.6059 6.6646.9089 4.4683.5301 9.0123.9088 13.1781 1.0602 2.12.0758 4.165.0758 6.058.0758 1.894-.0758 3.711-.1515 5.377-.3787 1.667-.2272 3.181-.4544 4.469-.8331 1.287-.3029 2.347-.7573 3.256-1.2117.379-.2272.758-.4544 1.061-.6059.302-.1515.53-.3787.757-.5301.379-.303.606-.4544.606-.4544l.075-.0758c.228-.1514.606-.1514.758.0758.151.2272.151.5301-.076.7573 0 0-.227.2272-.606.6059-.227.1514-.454.4544-.757.6816s-.757.4544-1.136.7573c-.909.5302-2.045 1.0603-3.408 1.5147s-2.954.8331-4.62 1.136c-1.742.303-3.559.4544-5.528.6059-1.97.0757-4.09.1515-6.211.1515-2.12 0-4.3923-.1515-6.5886-.303-2.272-.1515-4.544-.3787-6.816-.6059s-4.544-.5301-6.7403-.833c-2.1963-.303-4.3926-.6816-6.5131-1.0603-2.1206-.3787-4.1654-.7573-6.0588-1.136-1.8933-.4544-3.7109-.8331-5.3771-1.2118-3.3322-.7573-6.0587-1.5146-8.0278-1.969-1.8933-.5302-3.0293-.8331-3.0293-.8331-.3029-.0757-.4544-.3787-.3787-.6816.0758-.4544.3029-.6059.6059-.5302z"
        fill="#EA7E7E"
      ></path>
      <ellipse
        cx="133.189"
        cy="34.5856"
        fill="#729599"
        rx="7.66272"
        ry="10.217"
        transform="matrix(-.40896764 .91254889 -.91254889 -.40896764 219.220042 -72.811482)"
      ></ellipse>
      <path
        d="m132.216 43.3971c2.952-.4345 4.954-3.4459 4.471-6.7261s-3.267-5.5871-6.22-5.1526c-2.952.4345-4.954 3.4458-4.471 6.726s3.268 5.5871 6.22 5.1527z"
        fill="#F2F2F2"
      ></path>
      <path
        d="m131.705 40.0877c1.406-.2069 2.344-1.7421 2.096-3.4291s-1.589-2.8868-2.995-2.6799-2.344 1.7422-2.096 3.4291c.249 1.687 1.589 2.8868 2.995 2.6799z"
        fill="#326BB8"
      ></path>
      <path
        d="m132.358 44.9695c.029-.3777-.253-.7081-.631-.7378-.377-.0297-.708.2525-.737.6302-.03.3778.252.7081.63.7378s.708-.2524.738-.6302z"
        fill="#F2F2F2"
      ></path>
      <path
        d="m134.247 38.1919c.978-.1849 1.592-1.278 1.371-2.4416-.22-1.1636-1.19-1.9569-2.168-1.772-.977.1849-1.591 1.2781-1.371 2.4416.22 1.1636 1.191 1.957 2.168 1.772z"
        fill="#F2F2F2"
      ></path>
      <!-- <path
        d="m27.6956 92.3364 3.1807-.7455-2.1829 2.3855z"
        fill="#326BB8"
      ></path> -->
      <!-- <path
        d="m22.308 100.231c.4671-.6164.6423-1.3558.5839-2.1569-.2335-2.2799-.3503-7.0245 2.3355-7.9488 3.5616-1.1708 4.2623 6.1619 4.5542 9.5509.2919 3.3888 9.1084 15.0968-14.0129 14.9738-.0584 0 2.9777-9.675 6.5393-14.419z"
        fill="#EA7E7E"
      ></path> -->
      <!-- <path
        d="m25.7081 93.1802c.2196 0 .3976-.178.3976-.3976s-.178-.3976-.3976-.3976c-.2195 0-.3976.178-.3976.3976s.1781.3976.3976.3976z"
        fill="#F2F2F2"
      ></path> -->
      <!-- <path
        d="m23.7197 113.855v2.386"
        stroke="#591d06"
        stroke-miterlimit="10"
        stroke-width=".75"
      ></path> -->
      <!-- <path
        d="m26.1045 113.06v3.181"
        stroke="#591d06"
        stroke-miterlimit="10"
        stroke-width=".75"
      ></path> -->
      <!-- <path
        d="m24.0984 107.422c1.2116-2.429-.5048-6.795-1.5145-8.6747-.505.7228-1.9693 3.0357-3.7867 6.5057s-2.7766 6.651-3.029 7.807c2.2719-.867 7.1186-3.209 8.3302-5.638z"
        fill="#CE8056"
      ></path> -->
      <!-- <path
        d="m42.8834 134.966-2.7767.402 12.5346 86.72 2.7766-.401z"
        fill="#CE8056"
      ></path> -->
      <!-- <path
        d="m64.5161 109.828c-.9695-1.113-39.479 5.41-48.5592 6.966-1.0698.184-1.7784 1.174-1.6198 2.248.8257 5.59 3.1758 21.543 3.2967 22.853.13 1.408 39.6477-5.406 48.6517-6.977 1.035-.18 1.7264-1.116 1.6118-2.16-.6109-5.566-2.4705-21.884-3.3812-22.93z"
        fill="#326BB8"
      ></path> -->
      <!-- <path
        clip-rule="evenodd"
        d="m39.4294 118.881c-4.085.59-7.5421 2.781-9.8303 5.848-.2665.357-.7722.431-1.1294.164-.3572-.266-.4308-.772-.1642-1.129 2.534-3.396 6.3669-5.826 10.893-6.481 4.5262-.654 8.8903.591 12.2822 3.131.3568.267.4295.773.1624 1.13-.2672.356-.7729.429-1.1297.162-3.0629-2.293-6.999-3.416-11.084-2.825z"
        fill="#F2F2F2"
        fill-rule="evenodd"
      ></path> -->
      <!-- <path
        clip-rule="evenodd"
        d="m40.2717 124.141c-2.6519.383-4.8957 1.796-6.3817 3.772-.2679.356-.7739.428-1.1301.16s-.4277-.774-.1598-1.13c1.733-2.304 4.3517-3.953 7.4407-4.4 3.0889-.446 6.0675.394 8.3819 2.113.3578.265.4325.771.1667 1.129-.2657.358-.7712.432-1.129.166-1.9847-1.473-4.5369-2.194-7.1887-1.81z"
        fill="#F2F2F2"
        fill-rule="evenodd"
      ></path> -->
      <!-- <path
        clip-rule="evenodd"
        d="m41.033 129.412c-1.161.168-2.1417.805-2.7842 1.702-.2596.362-.7638.445-1.1261.186-.3623-.26-.4456-.764-.186-1.126.8854-1.236 2.248-2.125 3.8654-2.359 1.6175-.234 3.176.233 4.3751 1.167.3516.274.4144.782.1405 1.133-.274.352-.7811.415-1.1326.141-.8702-.679-1.9911-1.011-3.1521-.844z"
        fill="#F2F2F2"
        fill-rule="evenodd"
      ></path> -->
      <!-- <ellipse
        fill="#F2F2F2"
        rx="1.53334"
        ry="1.53334"
        transform="matrix(.989715 -.143053 .143054 .989715 41.565 133.658)"
      ></ellipse> -->
      <!-- <path
        d="m24.797 137.048 33.9507-23.252"
        stroke="#EA7E7E"
        stroke-width="3"
      ></path> -->
      <!-- <path
        d="m15.1085 222.713c-2.0979-5.525-3.5503-11.21-4.5186-17.055-.4841-2.963-.72618-6.246 1.1297-8.568.4034-.48.9682-.96 1.6138-.8.4034.08.6455.32.9682.64 4.9221 4.805 8.4724 11.05 10.0055 17.776-1.0489-11.29.0807-22.74 3.3083-33.629.4841-1.602 1.2103-3.523 2.9048-4.004 3.3083 11.45 5.3255 23.3 5.971 35.231 1.291-11.05 11.1514-21.539 16.5576-31.227 1.6138 1.521 1.6944 4.003 1.6138 6.165-.3228 12.571-6.9555 24.901-7.2783 37.392"
        fill="#EA7E7E"
      ></path> -->
      <!-- <path
        d="m212.166 32.9268h-43.873l4.909-4.1602v-8.2372c0-6.906 5.575-12.48063 12.48-12.48063h26.567c6.906 0 12.481 5.57463 12.481 12.48063-.167 6.8227-5.741 12.3974-12.564 12.3974z"
        fill="#CE8056"
      ></path> -->
      <!-- <path
        d="m190.682 16.0975-2.413 5.1302-2.653-5.1302h-1.958l3.651 6.9471-1.2 2.4048h1.908l4.585-9.3519z"
        fill="#EA7E7E"
      ></path> -->
      <!-- <path
        d="m198.451 18.9031h-5.748v6.5463h1.643v-4.9698h2.463v4.9698h1.642z"
        fill="#EA7E7E"
      ></path> -->
      <!-- <path
        d="m205.572 24.9818v-1.7501c-.543.5344-1.351.8684-2.16.8417-1.137 0-1.882-.7616-1.882-2.004 0-1.0955.657-1.8838 1.567-1.8838.416 0 .96.294 1.061 1.0287h1.591c.038-1.3092-.884-2.4715-2.652-2.4715-1.883 0-3.26 1.4028-3.26 3.3266 0 2.0975 1.301 3.5403 3.5 3.5403.922 0 1.654-.2137 2.235-.6279z"
        fill="#EA7E7E"
      ></path> -->
      <!-- <path
        d="m207.975 25.5162c.594 0 1.036-.4676 1.036-1.0955s-.442-1.0955-1.036-1.0955-1.036.4676-1.036 1.0955.442 1.0955 1.036 1.0955z"
        fill="#EA7E7E"
      ></path> -->
      <!-- <path
        d="m211.762 25.5162c.594 0 1.036-.4676 1.036-1.0955s-.442-1.0955-1.036-1.0955-1.036.4676-1.036 1.0955.442 1.0955 1.036 1.0955z"
        fill="#EA7E7E"
      ></path> -->
      <!-- <path
        d="m215.549 25.5162c.594 0 1.036-.4676 1.036-1.0955s-.442-1.0955-1.036-1.0955c-.593 0-1.035.4676-1.035 1.0955s.442 1.0955 1.035 1.0955z"
        fill="#EA7E7E"
      ></path> -->
    </g>
  </svg>